<?xml version="1.0" encoding="iso-8859-1"?>
<!-- Uploaded to: SVG Repo, www.svgrepo.com, Generator: SVG Repo Mixer Tools -->
<svg fill="#3FA2F6" height="800px" width="800px" version="1.1" id="Layer_1" xmlns="http://www.w3.org/2000/svg" xmlns:xlink="http://www.w3.org/1999/xlink" 
	 viewBox="0 0 512 512" xml:space="preserve">
<g>
	<g>
		<path d="M439.907,167.564l-67.491-89.6V11.636C372.416,4.655,367.762,0,360.78,0H151.325c-6.982,0-11.636,4.655-11.636,11.636
			v66.327l-67.491,89.6c-2.327,3.491-3.491,8.145-1.164,11.636c2.327,4.655,5.818,6.982,10.473,6.982h197.818v267.636
			c0,6.982,4.655,11.636,11.636,11.636s11.636-4.655,11.636-11.636V186.182h116.364v302.545H93.143V221.091H69.871v279.273
			c0,6.982,4.655,11.636,11.636,11.636h349.091c6.982,0,11.636-4.655,11.636-11.636V174.545
			C442.234,172.218,441.071,169.891,439.907,167.564z M285.143,162.909H104.78l55.855-74.473c1.164-2.327,2.327-4.655,2.327-6.982
			V23.273h186.182v46.545H197.871c-6.982,0-11.636,4.655-11.636,11.636s4.655,11.636,11.636,11.636h139.636L285.143,162.909z
			 M314.234,162.909l46.545-61.673l46.545,61.673H314.234z"/>
	</g>
</g>
<g>
	<g>
		<path d="M244.416,279.273H128.052c-6.982,0-11.636,4.655-11.636,11.636s4.655,11.636,11.636,11.636h116.364
			c6.982,0,11.636-4.655,11.636-11.636S251.398,279.273,244.416,279.273z"/>
	</g>
</g>
<g>
	<g>
		<path d="M244.416,337.455H128.052c-6.982,0-11.636,4.655-11.636,11.636c0,6.982,4.655,11.636,11.636,11.636h116.364
			c6.982,0,11.636-4.655,11.636-11.636C256.052,342.109,251.398,337.455,244.416,337.455z"/>
	</g>
</g>
</svg>